<?xml version="1.0" encoding="utf-8"?>
<!-- Generator: Adobe Illustrator 27.8.1, SVG Export Plug-In . SVG Version: 6.00 Build 0)  -->
<svg version="1.1" id="Capa_1" xmlns="http://www.w3.org/2000/svg" xmlns:xlink="http://www.w3.org/1999/xlink" x="0px" y="0px"
	 viewBox="0 0 556.3 201.1" style="enable-background:new 0 0 556.3 201.1;" xml:space="preserve">
<style type="text/css">
	.st0{fill:#0F3D64;}
	.st1{fill:#F3C600;}
</style>
<g>
	<path class="st0" d="M65.9,151.3H40.6V0h1.6c13.1,0,23.6,10.6,23.6,23.6V151.3z"/>
	<path class="st0" d="M120.7,61.2h25.3v106.6h-1.6c-13.1,0-23.6-10.6-23.6-23.6V61.2z"/>
	
		<rect x="56.7" y="2.8" transform="matrix(0.5704 -0.8214 0.8214 0.5704 -34.6222 90.6569)" class="st0" width="25.3" height="151.3"/>
	<path class="st1" d="M194.6,55.4l-1.2,1.9c-5.2,8.2-16.1,10.6-24.3,5.4l-48.1-30.5l10.6-16.8L194.6,55.4z"/>
	
		<rect x="96.7" y="27.2" transform="matrix(0.7948 -0.6069 0.6069 0.7948 2.0349 80.1774)" class="st1" width="45.8" height="19.7"/>
	<g>
		<path class="st1" d="M216.5,91.1V54.9c0-7.5,2.4-9.5,8.8-9.5c4.6,0,7.5,1,10.9,8.4l12.1,27.3c0.4,0.9,0.7,1.1,1.1,1.1
			c0.6,0,0.8-0.5,0.8-1.4l-0.2-32c0-2.2,1.2-3.5,3.5-3.5h3.4c2.2,0,3.5,1.2,3.5,3.5v36.2c0,7.5-2.4,9.5-8.8,9.5
			c-4.6,0-7.5-1-10.9-8.4l-12.1-27.3c-0.4-0.9-0.7-1.1-1.1-1.1c-0.6,0-0.8,0.5-0.8,1.4l0.2,32c0,2.2-1.2,3.5-3.5,3.5H220
			C217.8,94.6,216.5,93.4,216.5,91.1z"/>
		<path class="st1" d="M300,57.4h3.6c2.2,0,3.5,1.2,3.5,3.5v16.9c0,13.6-6.8,17.5-18.6,17.5c-11.8,0-18.6-3.9-18.6-17.5V60.9
			c0-2.2,1.2-3.5,3.5-3.5h3.6c2.2,0,3.5,1.2,3.5,3.5v17c0,6.7,2.4,8.5,8.1,8.5s8.1-1.9,8.1-8.5v-17C296.5,58.7,297.8,57.4,300,57.4z
			"/>
		<path class="st1" d="M341.3,79.4l-16,1.7c1.4,4.2,4.8,5.7,9.8,5.7c2.5,0,5.4-0.4,8.7-1.2c2.5-0.6,3.9,0.5,3.9,3v1.1
			c0,2-0.9,3.4-3,3.9c-4.1,1.1-7.9,1.7-11.5,1.7c-11.5,0-19.1-6.2-19.1-19.3c0-12.3,6.5-19.3,19.2-19.3c10.7,0,17,5,17,14.4
			C350.3,76.5,348.1,78.7,341.3,79.4z M340.4,70.2c0-3.6-2.2-5.5-7-5.5c-5.3,0-8.1,2.4-8.6,8.8l13-1.3
			C340,71.9,340.4,71.5,340.4,70.2z"/>
		<path class="st1" d="M388.8,57.4h3.8c2.5,0,3.7,1.6,2.9,4l-7.6,23c-2.7,8.4-5.5,10.9-12.5,10.9c-7,0-9.8-2.6-12.5-10.9l-7.5-23
			c-0.8-2.4,0.3-4,2.9-4h3.8c2,0,3.3,0.9,3.9,2.9l6.4,21.8c1,3.2,1.8,3.6,3,3.6c1.2,0,2-0.4,3-3.6l6.5-21.8
			C385.5,58.4,386.8,57.4,388.8,57.4z"/>
		<path class="st1" d="M400.3,76c0-12.3,6.8-19.3,19.1-19.3c12.4,0,19.1,7,19.1,19.3c0,12.3-6.8,19.3-19.1,19.3
			C407.1,95.3,400.3,88.3,400.3,76z M427.9,76c0-7.3-2.8-10.4-8.5-10.4c-5.7,0-8.5,3.1-8.5,10.4c0,7.3,2.8,10.4,8.5,10.4
			C425.1,86.4,427.9,83.3,427.9,76z"/>
	</g>
	<g>
		<path class="st0" d="M252.9,105.1h3.7c2.2,0,3.5,1.2,3.5,3.5v42.2c0,2.2-1.2,3.5-3.5,3.5h-3.7c-2.2,0-3.5-1.2-3.5-3.5v-16.9h-22.7
			v16.9c0,2.2-1.2,3.5-3.5,3.5h-3.7c-2.2,0-3.5-1.2-3.5-3.5v-42.2c0-2.2,1.2-3.5,3.5-3.5h3.7c2.2,0,3.5,1.2,3.5,3.5v15.7h22.7v-15.7
			C249.5,106.4,250.7,105.1,252.9,105.1z"/>
		<path class="st0" d="M268.6,135.7c0-12.3,6.8-19.3,19.1-19.3c12.4,0,19.1,7,19.1,19.3c0,12.3-6.8,19.3-19.1,19.3
			C275.3,155,268.6,148,268.6,135.7z M296.2,135.7c0-7.3-2.8-10.4-8.5-10.4c-5.7,0-8.5,3.1-8.5,10.4c0,7.3,2.8,10.4,8.5,10.4
			C293.4,146.1,296.2,143,296.2,135.7z"/>
		<path class="st0" d="M336.7,120.2v2.2c0,2.2-1.3,3.5-3.8,3.5c-7.9,0.1-8.3,0.8-8.3,3.6v21.3c0,2.2-1.2,3.5-3.5,3.5h-3.7
			c-2.2,0-3.5-1.2-3.5-3.5V128c0-8.7,3.1-11,19.1-11.3C335.5,116.7,336.7,117.9,336.7,120.2z"/>
		<path class="st0" d="M342.6,106.5c0-3.6,2-5.9,5.9-5.9c3.9,0,5.9,2.2,5.9,5.9c0,3.6-1.9,5.8-5.9,5.8
			C344.6,112.3,342.6,110.1,342.6,106.5z M343.1,150.8v-30.2c0-2.2,1.2-3.5,3.5-3.5h3.7c2.2,0,3.5,1.2,3.5,3.5v30.2
			c0,2.2-1.2,3.5-3.5,3.5h-3.7C344.4,154.3,343.1,153.1,343.1,150.8z"/>
		<path class="st0" d="M378.7,125.7h-14.1c-2.2,0-3.5-1.2-3.5-3.5v-1.6c0-2.2,1.2-3.5,3.5-3.5h23c6.2,0,7.2,7,2.5,12l-14.6,15.5
			c-0.6,0.7-0.3,1.2,0.7,1.2h14c2.2,0,3.5,1.2,3.5,3.5v1.6c0,2.2-1.2,3.5-3.5,3.5h-22.9c-6.3,0-7.3-7-2.5-12l14.8-15.5
			C380,126.2,379.7,125.7,378.7,125.7z"/>
		<path class="st0" d="M397.6,135.7c0-12.3,6.8-19.3,19.1-19.3c12.4,0,19.1,7,19.1,19.3c0,12.3-6.8,19.3-19.1,19.3
			C404.4,155,397.6,148,397.6,135.7z M425.2,135.7c0-7.3-2.8-10.4-8.5-10.4c-5.7,0-8.5,3.1-8.5,10.4c0,7.3,2.8,10.4,8.5,10.4
			C422.4,146.1,425.2,143,425.2,135.7z"/>
		<path class="st0" d="M480.2,133.9v16.9c0,2.2-1.2,3.5-3.5,3.5h-3.6c-2.2,0-3.5-1.2-3.5-3.5v-17c0-6.7-2.4-8.5-8.1-8.5
			s-8.1,1.9-8.1,8.5v17c0,2.2-1.2,3.5-3.5,3.5h-3.6c-2.2,0-3.5-1.2-3.5-3.5v-16.9c0-13.6,6.8-17.5,18.6-17.5
			C473.3,116.4,480.2,120.4,480.2,133.9z"/>
		<path class="st0" d="M509,125.7h-10.3v14.8c0,3.9,1.7,5.5,5.9,5.5c2,0,3.3-0.4,4.6-0.4c2.3,0,3.3,0.9,3.3,2.8v1.9
			c0,1.9-0.9,3.3-2.8,3.7c-12,2.9-21.6-0.2-21.6-13.4V112c0-2.2,1.2-3.5,3.5-3.5h3.7c2.2,0,3.5,1.2,3.5,3.5v5.1H509
			c2.2,0,3.5,1.2,3.5,3.5v1.7C512.5,124.5,511.3,125.7,509,125.7z"/>
		<path class="st0" d="M544.4,139.1l-16,1.7c1.4,4.2,4.8,5.7,9.8,5.7c2.5,0,5.4-0.4,8.7-1.2c2.5-0.6,3.9,0.5,3.9,3v1.1
			c0,2-0.9,3.4-3,3.9c-4.1,1.1-7.9,1.7-11.5,1.7c-11.5,0-19.1-6.2-19.1-19.3c0-12.3,6.5-19.3,19.2-19.3c10.7,0,17,5,17,14.4
			C553.4,136.2,551.2,138.4,544.4,139.1z M543.5,129.9c0-3.6-2.2-5.5-7-5.5c-5.3,0-8.1,2.4-8.6,8.8l13-1.3
			C543.1,131.6,543.5,131.2,543.5,129.9z"/>
	</g>
	<g>
		<path class="st0" d="M282.3,177.4h2.1v17.4h-2.1V177.4z"/>
		<path class="st0" d="M290.2,177.4h1.9l11.9,14.2v-14.2h2.1v17.4h-1.9l-11.9-14.2v14.2h-2.1V177.4z"/>
		<path class="st0" d="M311.8,177.4h1.8l8.6,14.6l8.6-14.6h1.8v17.4h-2v-13.3l-7.9,13.3h-1l-7.9-13.3v13.3h-2.1V177.4z"/>
		<path class="st0" d="M337.2,186.1c0-5.1,4.1-8.9,9.8-8.9c5.7,0,9.8,3.7,9.8,8.9c0,5.1-4.1,8.9-9.8,8.9
			C341.3,195,337.2,191.3,337.2,186.1z M354.6,186.1c0-4.2-3.1-7.1-7.6-7.1s-7.6,3-7.6,7.1c0,4.2,3.1,7.1,7.6,7.1
			C351.4,193.2,354.6,190.2,354.6,186.1z"/>
		<path class="st0" d="M375.3,190c0,2.9-2.5,4.8-6.5,4.8h-7.6v-17.4h7.1c3.8,0,6.1,1.8,6.1,4.7c0,1.9-1.1,3.4-3.3,3.8v0
			C373.9,186.3,375.3,187.8,375.3,190z M363.4,179.1v6h5.1c2.6,0,4.1-1.1,4.1-3s-1.5-3-4.1-3H363.4z M373.2,189.9
			c0-1.9-1.7-3.1-4.7-3.1h-5.2v6.2h5.4C371.6,193,373.2,191.9,373.2,189.9z"/>
		<path class="st0" d="M379.2,177.4h2.1v17.4h-2.1V177.4z"/>
		<path class="st0" d="M398.9,192.9v1.9h-11.7v-17.4h2.1v15.5H398.9z"/>
		<path class="st0" d="M402.2,177.4h2.1v17.4h-2.1V177.4z"/>
		<path class="st0" d="M421.5,190.2h-10l-2.1,4.5h-2.3l8.2-17.4h2.5l8.2,17.4h-2.3L421.5,190.2z M420.6,188.5l-4-8.7l-0.2-0.6
			l-0.2,0.6l-4,8.7H420.6z"/>
		<path class="st0" d="M440.6,194.8l-4.9-6.3h-0.1h-4.7v6.3h-2.1v-17.4h6.9c4.3,0,7,2.1,7,5.5c0,2.7-1.9,4.7-4.9,5.3l5.4,6.5H440.6z
			 M430.9,186.6h4.8c3,0,4.8-1.4,4.8-3.7c0-2.3-1.8-3.7-4.8-3.7h-4.9V186.6z"/>
		<path class="st0" d="M446.5,177.4h2.1v17.4h-2.1V177.4z"/>
		<path class="st0" d="M465.7,190.2h-10l-2.1,4.5h-2.3l8.2-17.4h2.5l8.2,17.4h-2.3L465.7,190.2z M464.9,188.5l-4-8.7l-0.2-0.6
			l-0.2,0.6l-4,8.7H464.9z"/>
	</g>
</g>
<g>
</g>
<g>
</g>
<g>
</g>
<g>
</g>
<g>
</g>
<g>
</g>
</svg>
